# xmcd
#
# Track frame offsets: 
#        150
#        11808
#        25030
#        40850
#        53555
#        67318
#        79113
#        89133
#        99600
#        106863
#        118740
#        127828
#        140685
#        153750
#        166048
#
# Disc length: 2373 seconds
#
# Revision: 5
# Processed by: cddbd v1.5.2PL0 Copyright (c) Steve Scherf et al.
# Submitted via: ExactAudioCopy v1.0b3
#
DISCID=bf09430f
DTITLE=Sonny Boy Williamson - One Way Out
DYEAR=1975
DGENRE=Blues
TTITLE0=Born Blind
TTITLE1=Work With Me
TTITLE2=You Killing Me
TTITLE3=Keep It To Yourself
TTITLE4=Don't Lose Your Eye
TTITLE5=Good Evening Everybody
TTITLE6=Too Close Together
TTITLE7=Let Your Conscience Be Your Guide
TTITLE8=I Wonder Why
TTITLE9=This Is My Apartment
TTITLE10=One Way Out
TTITLE11=Like Wolf
TTITLE12=Have You Ever Been In Love
TTITLE13=Cool Disposition
TTITLE14=I Know What Love Is All About
EXTD=CHD-9116\n\nOriginally released January 1975 as CHV-417\n\nSubmit
EXTD=ted 6/12/97\n[Jmccoy@efn.org]
EXTT0=
EXTT1=
EXTT2=
EXTT3=
EXTT4=
EXTT5=
EXTT6=
EXTT7=
EXTT8=
EXTT9=
EXTT10=
EXTT11=
EXTT12=
EXTT13=
EXTT14=
PLAYORDER=
